<svg aria-hidden="true" style="position: absolute; width: 0; height: 0; overflow: hidden;" version="1.1" xmlns="http://www.w3.org/2000/svg" xmlns:xlink="http://www.w3.org/1999/xlink">
<defs>
<symbol id="icon-volume_up" viewBox="0 0 24 24">
<path d="M14.016 3.234q3.047 0.656 5.016 3.117t1.969 5.648-1.969 5.648-5.016 3.117v-2.063q2.203-0.656 3.586-2.484t1.383-4.219-1.383-4.219-3.586-2.484v-2.063zM16.5 12q0 2.813-2.484 4.031v-8.063q1.031 0.516 1.758 1.688t0.727 2.344zM3 9h3.984l5.016-5.016v16.031l-5.016-5.016h-3.984v-6z"></path>
</symbol>
<symbol id="icon-chevron-thin-down" viewBox="0 0 20 20">
<path d="M17.418 6.109c0.272-0.268 0.709-0.268 0.979 0s0.271 0.701 0 0.969l-7.908 7.83c-0.27 0.268-0.707 0.268-0.979 0l-7.908-7.83c-0.27-0.268-0.27-0.701 0-0.969s0.709-0.268 0.979 0l7.419 7.141 7.418-7.141z"></path>
</symbol>
</defs>
</svg>
